<svg width="680" height="220" viewBox="0 0 680 220" role="img" xmlns="http://www.w3.org/2000/svg">
  <title>Frisian daytime maritime banner for hmettendorf</title>
  <desc>A bright North Frisian Wadden Sea scene with halligen islands, a lighthouse, seabirds, sailing boats and gentle daytime waves</desc>
  <defs>
    <clipPath id="clip">
      <rect width="680" height="220"/>
    </clipPath>
  </defs>
  <g clip-path="url(#clip)">
    <rect x="0" y="0" width="680" height="220" fill="#c8dff0"/>
    <rect x="0" y="0" width="680" height="60" fill="#b8d4e8"/>
    <rect x="0" y="50" width="680" height="30" fill="#c2daf0"/>
    <rect x="0" y="70" width="680" height="20" fill="#cce2f4"/>
    <ellipse cx="120" cy="22" rx="110" ry="12" fill="#deeef8" opacity="0.85"/>
    <ellipse cx="160" cy="18" rx="70" ry="8" fill="#e8f4fc" opacity="0.7"/>
    <ellipse cx="400" cy="28" rx="140" ry="11" fill="#deeef8" opacity="0.8"/>
    <ellipse cx="460" cy="22" rx="80" ry="8" fill="#e8f4fc" opacity="0.65"/>
    <ellipse cx="610" cy="18" rx="90" ry="10" fill="#deeef8" opacity="0.75"/>
    <ellipse cx="580" cy="30" rx="60" ry="7" fill="#e8f4fc" opacity="0.6"/>
    <ellipse cx="280" cy="40" rx="100" ry="9" fill="#deeef8" opacity="0.6"/>
    <circle cx="560" cy="36" r="22" fill="#f5e060" opacity="0.92"/>
    <circle cx="560" cy="36" r="17" fill="#f8ec80" opacity="0.9"/>
    <rect x="0" y="90" width="680" height="130" fill="#a8c8e0"/>
    <path d="M0 96 Q170 88 340 94 Q510 100 680 92 L680 108 Q510 116 340 110 Q170 104 0 112 Z" fill="#c8b890" opacity="0.55"/>
    <path d="M0 105 Q45 98 90 105 Q135 112 180 105 Q225 98 270 105 Q315 112 360 105 Q405 98 450 105 Q495 112 540 105 Q585 98 630 105 Q655 102 680 105 L680 220 L0 220 Z" fill="#8ab8d4"/>
    <path d="M0 118 Q55 111 110 118 Q165 125 220 118 Q275 111 330 118 Q385 125 440 118 Q495 111 550 118 Q610 125 660 118 Q670 117 680 118 L680 220 L0 220 Z" fill="#7aaec8"/>
    <path d="M0 132 Q60 125 120 132 Q180 139 240 132 Q300 125 360 132 Q420 139 480 132 Q540 125 600 132 Q645 128 680 132 L680 220 L0 220 Z" fill="#6da4be"/>
    <path d="M0 148 Q70 141 140 148 Q210 155 280 148 Q350 141 420 148 Q490 155 560 148 Q625 143 680 148 L680 220 L0 220 Z" fill="#62a0bc"/>
    <path d="M0 168 Q80 162 160 168 Q240 174 320 168 Q400 162 480 168 Q560 174 640 168 Q662 166 680 168 L680 220 L0 220 Z" fill="#5898b4"/>
    <path d="M30 112 Q55 108 80 112" stroke="#d0eaf8" stroke-width="0.7" fill="none" opacity="0.7"/>
    <path d="M140 106 Q165 102 190 106" stroke="#d0eaf8" stroke-width="0.7" fill="none" opacity="0.6"/>
    <path d="M280 112 Q305 108 330 112" stroke="#d0eaf8" stroke-width="0.7" fill="none" opacity="0.65"/>
    <path d="M450 107 Q475 103 500 107" stroke="#d0eaf8" stroke-width="0.7" fill="none" opacity="0.6"/>
    <path d="M590 110 Q615 106 640 110" stroke="#d0eaf8" stroke-width="0.7" fill="none" opacity="0.55"/>
    <rect x="548" y="104" width="6" height="80" fill="#f8ec80" opacity="0.10" rx="3"/>
    <rect x="552" y="100" width="3" height="88" fill="#f8ec80" opacity="0.14" rx="2"/>
    <rect x="544" y="120" width="14" height="6" fill="#f8ec80" opacity="0.08" rx="3"/>
    <rect x="540" y="136" width="22" height="5" fill="#f8ec80" opacity="0.06" rx="3"/>
    <ellipse cx="148" cy="97" rx="68" ry="11" fill="#8aaa58"/>
    <ellipse cx="148" cy="94" rx="60" ry="8" fill="#9aba64"/>
    <ellipse cx="148" cy="92" rx="50" ry="6" fill="#a8c870"/>
    <ellipse cx="148" cy="88" rx="24" ry="7" fill="#c8a060"/>
    <rect x="138" y="74" width="20" height="14" fill="#e8d8b0"/>
    <polygon points="136,74 158,74 147,64" fill="#8a5a3a"/>
    <rect x="152" y="66" width="3" height="7" fill="#7a4a2a"/>
    <rect x="141" y="78" width="4" height="4" fill="#7aa8c0"/>
    <rect x="150" y="78" width="4" height="4" fill="#7aa8c0"/>
    <line x1="110" y1="94" x2="115" y2="90" stroke="#6a8a40" stroke-width="0.8"/>
    <line x1="122" y1="91" x2="127" y2="87" stroke="#6a8a40" stroke-width="0.8"/>
    <line x1="170" y1="91" x2="175" y2="87" stroke="#6a8a40" stroke-width="0.8"/>
    <line x1="183" y1="93" x2="188" y2="89" stroke="#6a8a40" stroke-width="0.8"/>
    <ellipse cx="132" cy="92" rx="3" ry="2" fill="#f0ede0"/>
    <ellipse cx="164" cy="91" rx="3" ry="2" fill="#f0ede0"/>
    <ellipse cx="390" cy="95" rx="44" ry="8" fill="#8aaa58"/>
    <ellipse cx="390" cy="93" rx="36" ry="6" fill="#9aba64"/>
    <ellipse cx="390" cy="91" rx="28" ry="5" fill="#a8c870"/>
    <ellipse cx="392" cy="87" rx="16" ry="5" fill="#c8a060"/>
    <rect x="384" y="76" width="16" height="11" fill="#e8d8b0"/>
    <polygon points="382,76 402,76 392,67" fill="#8a5a3a"/>
    <line x1="356" y1="93" x2="360" y2="90" stroke="#6a8a40" stroke-width="0.8"/>
    <line x1="366" y1="91" x2="370" y2="88" stroke="#6a8a40" stroke-width="0.8"/>
    <line x1="414" y1="91" x2="418" y2="88" stroke="#6a8a40" stroke-width="0.8"/>
    <ellipse cx="590" cy="93" rx="28" ry="5" fill="#9aba64" opacity="0.85"/>
    <ellipse cx="590" cy="91" rx="20" ry="4" fill="#a8c870" opacity="0.85"/>
    <ellipse cx="591" cy="88" rx="10" ry="3" fill="#c8a060" opacity="0.85"/>
    <rect x="586" y="80" width="10" height="8" fill="#e0c89a" opacity="0.85"/>
    <polygon points="584,80 598,80 591,73" fill="#7a4a2a" opacity="0.85"/>
    <rect x="232" y="60" width="14" height="38" fill="#f0ece0" rx="2"/>
    <rect x="232" y="72" width="14" height="7" fill="#d04040"/>
    <rect x="232" y="87" width="14" height="7" fill="#d04040"/>
    <rect x="229" y="52" width="20" height="10" fill="#f0ece0" rx="2"/>
    <rect x="232" y="50" width="14" height="5" fill="#f5d040" rx="1"/>
    <circle cx="239" cy="52" r="4" fill="#fff8c0" opacity="0.9"/>
    <ellipse cx="239" cy="99" rx="16" ry="4" fill="#6da4be"/>
    <polygon points="480,100 480,74 500,100" fill="#f0ece0"/>
    <polygon points="480,100 480,78 464,100" fill="#e0d8c0"/>
    <rect x="464" y="98" width="36" height="5" fill="#c8a060" rx="2"/>
    <polygon points="58,98 58,80 72,98" fill="#f0ece0" opacity="0.8"/>
    <rect x="52" y="96" width="24" height="4" fill="#c8a060" rx="1" opacity="0.8"/>
    <path d="M200 46 Q207 40 214 46" stroke="#4a6a88" stroke-width="1.2" fill="none"/>
    <path d="M218 38 Q225 32 232 38" stroke="#4a6a88" stroke-width="1.2" fill="none"/>
    <path d="M310 52 Q316 46 322 52" stroke="#4a6a88" stroke-width="1.1" fill="none"/>
    <path d="M480 40 Q487 34 494 40" stroke="#4a6a88" stroke-width="1.2" fill="none"/>
    <path d="M497 50 Q503 44 509 50" stroke="#4a6a88" stroke-width="1.1" fill="none"/>
    <path d="M418 30 Q423 25 428 30" stroke="#4a6a88" stroke-width="1" fill="none"/>
    <path d="M100 55 Q105 50 110 55" stroke="#4a6a88" stroke-width="1" fill="none"/>
    <line x1="0" y1="100" x2="680" y2="100" stroke="#5090b0" stroke-width="0.6" opacity="0.5"/>
    <text x="340" y="165" text-anchor="middle" font-family="Georgia, 'Times New Roman', serif" font-size="36" font-weight="700" letter-spacing="5" fill="#1e3a50" opacity="0.92">hmettendorf</text>
    <text x="340" y="186" text-anchor="middle" font-family="Georgia, 'Times New Roman', serif" font-size="12" letter-spacing="4" fill="#2a5a7a" opacity="0.82">platform engineer · hauke-cloud</text>
    <line x1="190" y1="196" x2="278" y2="196" stroke="#3a7090" stroke-width="0.8" opacity="0.6"/>
    <circle cx="290" cy="196" r="2.5" fill="none" stroke="#3a7090" stroke-width="0.8" opacity="0.6"/>
    <circle cx="340" cy="196" r="2.5" fill="none" stroke="#3a7090" stroke-width="0.8" opacity="0.6"/>
    <circle cx="380" cy="196" r="2.5" fill="none" stroke="#3a7090" stroke-width="0.8" opacity="0.6"/>
    <line x1="392" y1="196" x2="490" y2="196" stroke="#3a7090" stroke-width="0.8" opacity="0.6"/>
  </g>
</svg>
